<?xml version="1.0" encoding="UTF-8"?>
<svg version="1.1" xmlns="http://www.w3.org/2000/svg" width="1592" height="1592">
<path d="M0 0 C0.92824585 0.09945923 1.8564917 0.19891846 2.81286621 0.3013916 C77.65848282 8.43031535 150.89521024 26.12314365 220.73364258 54.41943359 C253.67170376 67.90806365 286.41578563 83.17742737 316.84472656 101.70166016 C319.28660602 103.17265188 321.74696638 104.60929631 324.2109375 106.04296875 C336.72260374 113.33373379 348.96051591 120.95358334 361 129 C361.81098145 129.54156738 362.62196289 130.08313477 363.45751953 130.64111328 C373.8622376 137.61556794 384.02939882 144.84646149 393.97900391 152.45556641 C396.11044317 154.08440004 398.2481975 155.70469672 400.38671875 157.32421875 C408.38815801 163.39615802 416.3006833 169.546161 424 176 C425.0003125 176.83789062 426.000625 177.67578125 427.03125 178.5390625 C430.36748961 181.34381592 433.6856979 184.16938177 437 187 C437.88993652 187.75821045 437.88993652 187.75821045 438.79785156 188.53173828 C450.9751919 198.92363037 462.80674986 209.65372053 474.03515625 221.0703125 C475.91541534 222.91692878 477.85880944 224.61679043 479.875 226.3125 C483.81218461 229.68834344 487.25139457 233.459364 490.71337891 237.30688477 C493.95652355 240.89962675 497.30211964 244.35385569 500.75 247.75 C505.04990151 252.01351306 509.08892702 256.38143618 513 261 C513.88992532 262.03836048 514.78061785 263.07606369 515.671875 264.11328125 C517.72341725 266.50104754 519.7711017 268.89204529 521.81640625 271.28515625 C523.89770895 273.71833616 525.98890784 276.14235044 528.08984375 278.55859375 C534.19941352 285.59988271 540.03503404 292.77505811 545.64892578 300.21923828 C547.11714591 302.15440229 548.60201189 304.07597095 550.08984375 305.99609375 C578.95111789 343.30520406 604.17560038 383.44913796 625.66064453 425.41992188 C626.87669375 427.76246801 628.12686699 430.08004775 629.40234375 432.390625 C651.40047621 472.43016038 666.87999781 516.32949082 680.33520508 559.85253906 C680.94377963 561.81839355 681.55849286 563.78234495 682.17382812 565.74609375 C701.41715793 627.622436 711.59435439 694.21265323 713.09112549 758.94073486 C713.79114084 794.64463045 713.86981801 830.46437794 710 866 C709.90054077 866.91986694 709.80108154 867.83973389 709.6986084 868.78747559 C701.51145684 943.71489847 683.84365838 1016.9375533 655.5168457 1086.86108398 C645.30349383 1111.81737172 633.88657587 1136.3126711 621 1160 C620.12718076 1161.62867941 619.25478083 1163.25758362 618.3828125 1164.88671875 C604.01389572 1191.54469979 588.12514842 1217.29299864 570.48828125 1241.91015625 C568.9677991 1244.04521649 567.46592068 1246.19228879 565.96875 1248.34375 C560.03648698 1256.85700083 553.91341322 1265.14831014 547.41503906 1273.23779297 C545.92513705 1275.09322995 544.44251754 1276.95431883 542.9609375 1278.81640625 C540.44187277 1281.97948436 537.91320617 1285.13466774 535.37841797 1288.28515625 C534.12549355 1289.84387767 532.87695353 1291.40612079 531.62890625 1292.96875 C527.29710653 1298.34296142 522.7738958 1303.48886538 518.06811523 1308.53564453 C515.22100171 1311.60676578 512.57251716 1314.76008213 510 1318.0625 C504.7987299 1324.54990234 498.84589069 1330.28513185 492.9140625 1336.09985352 C488.59477838 1340.34459117 484.45070008 1344.63777585 480.54956055 1349.2722168 C478.95247813 1351.0529876 477.26478576 1352.58396902 475.4375 1354.125 C471.45295875 1357.49178292 467.83868636 1361.15707152 464.1875 1364.875 C459.28285803 1369.84732811 454.25373943 1374.40165308 448.765625 1378.734375 C445.60767555 1381.32139573 442.6551546 1384.07473106 439.6875 1386.875 C434.24728901 1391.97902724 428.55567564 1396.615117 422.6484375 1401.1640625 C419.47594506 1403.61063114 416.37705124 1406.13699424 413.28662109 1408.68603516 C403.79751236 1416.50404683 393.97261642 1423.81271639 384 1431 C383.26604004 1431.53012695 382.53208008 1432.06025391 381.77587891 1432.60644531 C372.09922087 1439.57608612 362.24560681 1446.21697906 352.18017578 1452.61132812 C349.98779398 1454.00777468 347.80405883 1455.41701302 345.62109375 1456.828125 C325.89079268 1469.51708136 305.48491216 1480.95975766 284.61083984 1491.64746094 C282.17912688 1492.90720377 279.76817615 1494.19774899 277.36328125 1495.5078125 C237.31139598 1517.27732364 193.71124083 1532.92278481 150.25164795 1546.30523682 C148.20912772 1546.93547204 146.16886929 1547.57239533 144.12939453 1548.21240234 C97.43903125 1562.75508692 48.56101621 1570.95539561 0 1576 C-0.79700317 1576.08463501 -1.59400635 1576.16927002 -2.41516113 1576.25646973 C-73.74558904 1583.77952859 -147.27703356 1579.9167008 -217.79931641 1567.5390625 C-291.05789437 1554.40578709 -362.14948614 1530.75754758 -428.9621582 1498.03912354 C-477.67964194 1473.95349005 -523.80095137 1444.53338871 -566.41796875 1410.82421875 C-568.80511226 1408.93681613 -571.203613 1407.06558316 -573.61328125 1405.20703125 C-580.12279968 1400.17231867 -586.33924086 1394.98479301 -592.375 1389.37890625 C-594.90863856 1387.08279631 -597.51301126 1384.94174327 -600.1875 1382.8125 C-610.98808932 1374.08240992 -620.86423194 1364.23190865 -630.609375 1354.35546875 C-632.75626843 1352.24014728 -634.95380001 1350.26251717 -637.25 1348.3125 C-640.46817212 1345.56054195 -643.1553819 1342.59456024 -645.88671875 1339.3671875 C-648.63764921 1336.28573859 -651.56197827 1333.40197493 -654.5 1330.5 C-659.21675787 1325.82491311 -663.70762415 1321.07042361 -668 1316 C-669.49858334 1314.26792022 -671.00162064 1312.53975603 -672.50463867 1310.81152344 C-674.77860526 1308.19479589 -677.04537327 1305.57187217 -679.3125 1302.94921875 C-680.92368014 1301.0881565 -682.5395969 1299.23130771 -684.15625 1297.375 C-690.24601142 1290.35891691 -696.05443405 1283.19921692 -701.64892578 1275.78076172 C-703.11714591 1273.84559771 -704.60201189 1271.92402905 -706.08984375 1270.00390625 C-713.20081505 1260.80943848 -720.03620405 1251.45981855 -726.66699219 1241.91357422 C-727.85494904 1240.20822517 -729.05552061 1238.51167941 -730.2578125 1236.81640625 C-740.9038261 1221.71163788 -750.66374517 1205.94255019 -760 1190 C-760.55300781 1189.06172363 -761.10601563 1188.12344727 -761.67578125 1187.15673828 C-769.15849356 1174.44203477 -776.3643824 1161.68955264 -782.8203125 1148.421875 C-784.70124334 1144.56144926 -786.7278455 1140.8166081 -788.8125 1137.0625 C-809.32382679 1099.17816296 -823.66799992 1057.29115031 -836.30523682 1016.25164795 C-836.93547204 1014.20912772 -837.57239533 1012.16886929 -838.21240234 1010.12939453 C-852.74199034 963.48107879 -861.08061546 914.54171453 -866 866 C-866.12695251 864.75361755 -866.12695251 864.75361755 -866.25646973 863.48205566 C-871.31021559 813.00668236 -871.40140335 760.44779733 -866 710 C-865.90054077 709.07068665 -865.80108154 708.14137329 -865.6986084 707.18389893 C-857.57065307 632.3174433 -839.83785097 559.13407512 -811.56103516 489.27832031 C-786.67963155 428.39921412 -754.17193048 370.82972359 -715 318 C-714.50338867 317.32469238 -714.00677734 316.64938477 -713.49511719 315.95361328 C-706.4221 306.33679166 -699.05263495 297.00025429 -691.46484375 287.78515625 C-690.14481281 286.17647854 -688.8372442 284.55759407 -687.53125 282.9375 C-682.98167995 277.29859628 -678.24316422 271.88865399 -673.33984375 266.5546875 C-671.34165152 264.37302185 -669.37851111 262.16988691 -667.4375 259.9375 C-660.82145567 252.35212824 -654.09822435 244.96942169 -646.89770508 237.93457031 C-645.58104521 236.64054088 -644.28855198 235.32202087 -643 234 C-642.67 233.34 -642.34 232.68 -642 232 C-641.34 232 -640.68 232 -640 232 C-639.73445312 231.40396973 -639.46890625 230.80793945 -639.1953125 230.19384766 C-638 228 -638 228 -636.5546875 226.41943359 C-636.00039063 225.91750488 -635.44609375 225.41557617 -634.875 224.8984375 C-634.25568604 224.33068604 -633.63637207 223.76293457 -632.99829102 223.17797852 C-632.33885498 222.58299561 -631.67941895 221.9880127 -631 221.375 C-629.63276906 220.12256102 -628.26688696 218.868648 -626.90234375 217.61328125 C-626.23444824 216.9992041 -625.56655273 216.38512695 -624.87841797 215.75244141 C-622.37384849 213.4158415 -619.96577027 211.00326279 -617.5625 208.5625 C-613.53339715 204.49383149 -609.36298818 200.70484251 -605 197 C-603.96046294 196.10862606 -602.92144425 195.2166474 -601.8828125 194.32421875 C-599.49283101 192.27091173 -597.09898143 190.22222876 -594.703125 188.17578125 C-592.30500106 186.12482028 -589.92014234 184.06012902 -587.546875 181.98046875 C-580.25007768 175.60958684 -572.72457116 169.68785548 -564.93359375 163.93359375 C-561.24385801 161.20209058 -557.64937414 158.36435316 -554.0625 155.5 C-519.34295405 127.99362889 -480.45116886 104.70940261 -441.07495117 84.59619141 C-438.74611353 83.38730371 -436.43155128 82.1608664 -434.12231445 80.91552734 C-424.35125167 75.655553 -414.4691019 70.8430527 -404.3125 66.375 C-403.5495462 66.038172 -402.78659241 65.70134399 -402.0005188 65.35430908 C-333.56660808 35.20884504 -261.44010244 13.75101324 -187.265625 3.625 C-176.86338962 2.23571918 -166.43936019 1.0710461 -156 0 C-155.1860376 -0.08463501 -154.3720752 -0.16927002 -153.53344727 -0.25646973 C-103.09168934 -5.43814451 -50.41763062 -5.4128567 0 0 Z M-651 284 C-650 286 -650 286 -650 286 Z " fill="#DAEBFE" transform="translate(875,8)"/>
<path d="M0 0 C3.8591621 -0.00218443 7.71803672 -0.02038943 11.57714844 -0.03930664 C25.23845794 -0.07050751 38.59264646 0.32818792 52.13183594 2.18530273 C53.12489746 2.31106689 54.11795898 2.43683105 55.14111328 2.56640625 C57.41566135 2.86526974 59.67927224 3.19716468 61.94433594 3.56030273 C63.10896362 3.74701538 63.10896362 3.74701538 64.29711914 3.9375 C73.01664555 5.40734509 81.60660981 7.49843959 89.75683594 10.99780273 C91.57714844 12.00561523 91.57714844 12.00561523 93.13183594 13.18530273 C94.49902344 14.67749023 94.49902344 14.67749023 95.63183594 16.37280273 C96.50683594 18.19311523 96.50683594 18.19311523 97.13183594 20.18530273 C97.52624317 22.54352932 97.6363278 24.65672632 97.51855469 27.04467773 C97.3909375 27.75108398 97.26332031 28.45749023 97.13183594 29.18530273 C95.44433594 32.49780273 95.44433594 32.49780273 93.13183594 35.18530273 C90.85956539 37.18706488 88.8351749 38.83363325 86.13183594 40.18530273 C84.81699219 40.28198242 83.50214844 40.37866211 82.14746094 40.47827148 C79.49451184 40.75554814 77.17454134 41.1712153 74.63769531 42.00805664 C72.00791124 43.09327543 69.44431854 44.26198716 66.88183594 45.49780273 C65.96378174 45.93713135 65.04572754 46.37645996 64.09985352 46.82910156 C59.06581233 49.35873713 54.62844874 52.05364534 50.43212891 55.82226562 C47.937355 58.22073808 45.53224148 60.69216236 43.13183594 63.18530273 C41.85633677 64.32860045 40.56654773 65.45636307 39.25683594 66.56030273 C26.23178084 77.87443958 14.38007329 89.80984657 3.53808594 103.24780273 C0.83404094 106.54884468 -1.94949267 109.77275889 -4.74316406 112.99780273 C-10.20654537 119.32715033 -15.39494233 125.83909724 -20.51367188 132.44848633 C-21.85592954 134.16961485 -23.21430496 135.87654031 -24.57910156 137.57983398 C-35.65195234 151.42735248 -45.61603525 165.86024464 -54.64257812 181.12182617 C-55.75161272 182.98906927 -56.88049688 184.84227803 -58.01660156 186.69311523 C-66.59295861 201.03224185 -73.46558952 217.0562767 -77.86816406 233.18530273 C-81.76736686 248.25051685 -85.07903231 262.41753943 -85.16333008 278.02294922 C-85.17478919 279.49375068 -85.19514386 280.96451258 -85.22485352 282.43505859 C-85.35143616 288.72105375 -85.39398768 294.78093563 -84.0456543 300.94628906 C-82.20382417 307.07459175 -79.96702672 312.88726102 -76.74707031 318.43139648 C-72.28916987 324.9653254 -66.93312977 330.48561376 -61.01660156 335.69702148 C-54.70532776 340.70691403 -48.06415288 344.50369747 -40.69238281 347.68139648 C-33.02597944 350.80169522 -25.05523712 352.97398208 -16.86816406 354.18530273 C2.05694609 355.41228977 20.2690368 353.88949684 38.81494141 349.93383789 C46.2895362 348.24702002 53.68121245 346.32018992 61.02001953 344.1171875 C63.35297489 343.41854552 65.68828013 342.73622941 68.02880859 342.06396484 C83.41351675 337.59840819 98.54578172 332.38354841 113.70477295 327.21621704 C121.61186963 324.52116186 129.52412707 321.84131314 137.43652344 319.16186523 C138.21226841 318.89908846 138.98801338 318.63631168 139.78726578 318.36557198 C152.6699484 314.00291738 165.56972527 309.69675551 178.50683594 305.49780273 C179.2669397 305.2502121 180.02704346 305.00262146 180.81018066 304.74752808 C191.19621076 301.36886911 201.63461895 298.20051703 212.13183594 295.18530273 C212.78474609 294.99775421 213.43765625 294.81020569 214.11035156 294.61697388 C248.75433925 284.70255521 284.50008642 274.88308309 320.75683594 274.81030273 C334.51564037 274.93213671 348.47046954 275.46455311 362.13183594 277.18530273 C363.12183594 277.51530273 364.11183594 277.84530273 365.13183594 278.18530273 C367.83392225 278.45254204 370.53577342 278.62879654 373.24511719 278.80639648 C376.39671367 279.22007018 379.15168857 280.09801115 382.13183594 281.18530273 C382.40203102 304.48212324 381.67897296 327.72401563 379.69433594 350.93530273 C379.63289398 351.66620117 379.57145203 352.39709961 379.50814819 353.15014648 C378.8384753 361.00468276 377.95569263 368.75846043 376.57592773 376.52612305 C375.9294047 380.39744185 375.5964526 384.27755067 375.25683594 388.18530273 C374.52929432 395.7269296 373.28916493 403.05168327 371.72290039 410.46118164 C370.64359597 415.5753191 369.70436136 420.68495047 368.88208008 425.84643555 C364.84538745 450.87257903 358.6509307 475.75984137 350.86230469 499.87133789 C349.98867846 502.63879424 349.2068031 505.42572895 348.43139648 508.22192383 C333.88350032 560.1962379 310.86040987 614.25866205 282.55371094 660.23999023 C282.16505859 660.86744141 281.77640625 661.49489258 281.37597656 662.14135742 C279.97045185 664.45043374 278.6195758 666.78699222 277.27246094 669.13061523 C261.82963646 695.90795935 244.28805856 721.92485386 225.13183594 746.18530273 C224.20553286 747.36848814 223.27977109 748.55209748 222.35449219 749.73608398 C220.04067004 752.69393517 217.71770372 755.64440676 215.38964844 758.59106445 C214.24823247 760.03777374 213.11163272 761.48827967 211.97558594 762.93920898 C207.96596019 768.02284162 203.7625725 772.85759127 199.39746094 777.63842773 C197.15820269 780.15566286 195.04684882 782.74076809 192.94433594 785.37280273 C184.49799455 795.79437928 175.05417346 805.35296308 165.51464844 814.76733398 C163.42953395 816.88321246 161.48517186 819.04248766 159.56933594 821.31030273 C156.29995779 825.13748948 152.64276419 828.38213851 148.86621094 831.70092773 C145.8629583 834.42959728 143.03115274 837.28636919 140.19433594 840.18530273 C135.6755624 844.77906469 130.95318767 848.90466938 125.90136719 852.91577148 C122.92880917 855.35167587 120.12048151 857.93273243 117.31933594 860.56030273 C112.05412525 865.46931731 106.51502474 869.9141195 100.81933594 874.31030273 C97.61635272 876.78782394 94.48720146 879.34556964 91.36547852 881.92431641 C82.94700578 888.86735466 74.24304632 895.32041939 65.3359375 901.62084961 C63.24593426 903.10431668 61.1678959 904.60299382 59.09277344 906.10717773 C40.48617782 919.52308243 20.92399488 931.60743478 1.13183594 943.18530273 C0.31263672 943.66966797 -0.5065625 944.1540332 -1.35058594 944.65307617 C-54.36422731 975.90128653 -113.34909871 1001.42709525 -173.00048828 1016.90551758 C-175.03997995 1017.42834192 -177.07983836 1017.9497384 -179.12011719 1018.46948242 C-182.24379876 1019.2831493 -185.33825358 1020.17650062 -188.43505859 1021.0859375 C-245.91586252 1037.82560223 -307.84102827 1045.06168707 -367.5316925 1045.42195129 C-371.10222538 1045.43396352 -374.67261271 1045.43737689 -378.24316406 1045.43530273 C-379.36030792 1045.43470856 -380.47745178 1045.43411438 -381.62844849 1045.4335022 C-404.12503519 1045.38758613 -426.46595025 1044.42060722 -448.86816406 1042.37280273 C-450.3062291 1042.24365982 -450.3062291 1042.24365982 -451.77334595 1042.11190796 C-464.56217622 1040.95903702 -477.32110737 1039.6487145 -490.05566406 1037.99780273 C-491.34279297 1037.83111084 -492.62992188 1037.66441895 -493.95605469 1037.49267578 C-500.40068515 1036.62179186 -500.40068515 1036.62179186 -502.86816406 1036.18530273 C-503.52816406 1035.85530273 -504.18816406 1035.52530273 -504.86816406 1035.18530273 C-504.86150223 1034.3460878 -504.85484039 1033.50687286 -504.84797668 1032.64222717 C-504.78737108 1024.65668783 -504.74194192 1016.6712279 -504.71272755 1008.68550968 C-504.69720229 1004.58190505 -504.6762109 1000.47849354 -504.6418457 996.375 C-504.60877493 992.40030004 -504.59121287 988.42578348 -504.58353233 984.45095634 C-504.57807295 982.9494177 -504.56741837 981.44788682 -504.55097389 979.9464283 C-504.43651823 969.04269188 -505.65780077 958.85565345 -507.86816406 948.18530273 C-508.17157138 946.68308391 -508.47470953 945.18081069 -508.77757263 943.67848206 C-511.35859611 931.05458302 -515.98393734 919.26845048 -521.55566406 907.67358398 C-524.81590219 901.67819417 -528.81943591 896.42665698 -533.49536133 891.47241211 C-539.8107664 885.05475461 -546.66762776 879.99208263 -554.44238281 875.48999023 C-570.73540901 866.42705198 -588.07912129 859.81246175 -605.37890625 852.96655273 C-678.54777959 823.98415282 -678.54777959 823.98415282 -703.47363281 805.22436523 C-705.98086168 803.25745391 -708.43081959 801.23800991 -710.86816406 799.18530273 C-711.67898438 798.52143555 -712.48980469 797.85756836 -713.32519531 797.17358398 C-720.56474167 791.0057185 -726.44059349 783.96237097 -731.86816406 776.18530273 C-738.96932203 765.35002426 -744.48446478 753.3598659 -748.57226562 741.06811523 C-751.72897293 730.7825523 -753.87339023 720.21009453 -754.16894531 709.44311523 C-754.33194695 689.77881647 -752.88050291 671.53526232 -747.61816406 652.56030273 C-746.41621912 648.41967347 -745.15954833 644.2988541 -743.86816406 640.18530273 C-743.59488281 639.31164063 -743.32160156 638.43797852 -743.04003906 637.5378418 C-736.85457112 618.12487195 -728.37058127 599.39428511 -718.97851562 581.33227539 C-717.71485183 578.88885863 -716.47566072 576.43362261 -715.23535156 573.97827148 C-707.7668174 559.30535127 -699.51760027 545.19015804 -690.86816406 531.18530273 C-690.32095703 530.29762207 -689.77375 529.40994141 -689.20996094 528.49536133 C-675.4057789 506.17688982 -660.34322121 484.61798316 -643.86816406 464.18530273 C-643.11019531 463.24428711 -642.35222656 462.30327148 -641.57128906 461.33374023 C-636.24023716 454.77389977 -630.7903797 448.31582761 -625.30957031 441.88110352 C-623.86616791 440.18295428 -622.42934984 438.47940081 -620.99316406 436.77514648 C-615.08993372 429.79761503 -609.00523586 423.03226072 -602.73706055 416.38037109 C-599.79915404 413.26189763 -596.9034091 410.12990105 -594.11816406 406.87280273 C-590.61113827 402.78127264 -586.7619722 399.04844482 -582.90722656 395.28686523 C-582.23433594 394.59334961 -581.56144531 393.89983398 -580.86816406 393.18530273 C-580.53816406 392.52530273 -580.20816406 391.86530273 -579.86816406 391.18530273 C-579.20816406 391.18530273 -578.54816406 391.18530273 -577.86816406 391.18530273 C-577.4853125 390.31566895 -577.4853125 390.31566895 -577.09472656 389.4284668 C-575.86816406 387.18530273 -575.86816406 387.18530273 -574.20410156 385.26245117 C-573.2334375 384.28840332 -573.2334375 384.28840332 -572.24316406 383.29467773 C-571.53675781 382.58569336 -570.83035156 381.87670898 -570.10253906 381.14624023 C-569.36519531 380.41663086 -568.62785156 379.68702148 -567.86816406 378.93530273 C-567.13082031 378.19022461 -566.39347656 377.44514648 -565.63378906 376.67749023 C-564.92738281 375.97366211 -564.22097656 375.26983398 -563.49316406 374.54467773 C-562.84605469 373.89982422 -562.19894531 373.2549707 -561.53222656 372.59057617 C-560.98308594 372.12683594 -560.43394531 371.6630957 -559.86816406 371.18530273 C-559.20816406 371.18530273 -558.54816406 371.18530273 -557.86816406 371.18530273 C-557.86816406 370.52530273 -557.86816406 369.86530273 -557.86816406 369.18530273 C-557.20816406 369.18530273 -556.54816406 369.18530273 -555.86816406 369.18530273 C-555.86816406 368.52530273 -555.86816406 367.86530273 -555.86816406 367.18530273 C-554.55761719 365.89819336 -554.55761719 365.89819336 -552.64941406 364.34155273 C-548.8887766 361.14368672 -545.37369947 357.7798264 -541.89941406 354.27905273 C-541.37065674 353.74699219 -540.84189941 353.21493164 -540.29711914 352.66674805 C-538.65215199 351.00821467 -537.00972479 349.34720739 -535.36816406 347.68530273 C-522.83443551 334.99624323 -522.83443551 334.99624323 -516.52246094 329.61694336 C-514.18124936 327.59084173 -512.02720563 325.40269678 -509.86816406 323.18530273 C-506.38350877 319.60646757 -502.74441931 316.30535185 -498.97363281 313.03686523 C-495.52545421 310.00451522 -492.20143198 306.84279286 -488.86816406 303.68530273 C-484.23513654 299.29659502 -479.54952217 294.99862769 -474.72998047 290.81518555 C-472.12175133 288.53187349 -469.59223647 286.17304011 -467.05566406 283.81030273 C-462.40292899 279.50593235 -457.58900018 275.47218237 -452.64941406 271.49780273 C-449.62796922 268.98559017 -446.74378023 266.36126185 -443.86816406 263.68530273 C-439.23570745 259.37531168 -434.4469389 255.33468878 -429.51660156 251.36499023 C-426.89541287 249.20772875 -424.37662125 246.97219273 -421.86816406 244.68530273 C-417.22231568 240.46114325 -412.41126599 236.48637741 -407.53027344 232.53833008 C-405.63988211 230.99947157 -403.76123699 229.44695679 -401.88378906 227.89233398 C-394.66621386 221.91658082 -387.4224865 215.98818035 -380.0324707 210.2265625 C-376.45279451 207.43544673 -372.90292079 204.61118986 -369.37011719 201.76098633 C-363.09281009 196.70027491 -356.73237231 191.77686885 -350.2644043 186.96240234 C-344.6599514 182.79007188 -339.10514306 178.55539318 -333.55566406 174.31030273 C-320.75646984 164.53702706 -307.78830748 155.00205238 -294.74316406 145.56030273 C-294.10032471 145.09470947 -293.45748535 144.62911621 -292.79516602 144.14941406 C-290.49120915 142.48755739 -288.18062624 140.83531055 -285.86816406 139.18530273 C-285.28248657 138.76677032 -284.69680908 138.34823792 -284.09338379 137.91702271 C-273.49138984 130.35086882 -262.75989745 123.01501536 -251.86816406 115.87280273 C-250.74926285 115.13717606 -250.74926285 115.13717606 -249.60775757 114.38668823 C-236.24398933 105.60986385 -222.68888243 97.22556626 -208.86816406 89.18530273 C-213.79436728 90.81904551 -218.71987094 92.45487555 -223.64477539 94.0925293 C-225.31548945 94.6477719 -226.98638364 95.20247283 -228.6574707 95.7565918 C-231.07845452 96.55948017 -233.49875395 97.36440419 -235.91894531 98.16967773 C-236.64962723 98.41151794 -237.38030914 98.65335815 -238.13313293 98.90252686 C-247.59242577 102.05529366 -256.91931862 105.55305108 -266.21582031 109.15405273 C-267.15316513 109.51623901 -268.09050995 109.87842529 -269.05625916 110.25158691 C-271.02021014 111.01071124 -272.98395846 111.77036006 -274.94750977 112.53051758 C-277.9264241 113.68366143 -280.90602975 114.83500422 -283.88574219 115.98608398 C-285.8083092 116.72946762 -287.73083658 117.47295375 -289.65332031 118.21655273 C-290.52964615 118.55521362 -291.40597198 118.89387451 -292.30885315 119.24279785 C-297.42627478 121.22480991 -302.52781611 123.24302445 -307.62089539 125.28674316 C-310.40123746 126.39844957 -313.19161523 127.48273919 -315.98535156 128.56030273 C-332.77711779 135.0721071 -349.36696604 141.96425351 -365.86816406 149.18530273 C-366.93228516 149.64984863 -367.99640625 150.11439453 -369.09277344 150.59301758 C-399.96321317 164.10002522 -430.48861886 178.36575215 -460.75390625 193.17456055 C-467.17679439 196.31599464 -473.61113348 199.43387676 -480.04379272 202.55523682 C-482.97044007 203.97581955 -485.89633351 205.39795133 -488.82225037 206.82003784 C-495.50292988 210.06695984 -502.18613092 213.30860065 -508.87207031 216.54467773 C-544.35266666 233.67140908 -544.35266666 233.67140908 -579.18847656 252.06030273 C-585.07801347 255.31345127 -591.00762529 258.490523 -596.94210815 261.66064453 C-618.13865072 272.98423933 -639.24572973 284.46404989 -660.27516174 296.09472656 C-664.63003421 298.50269428 -668.98846691 300.90412272 -673.34863281 303.30249023 C-686.34770678 310.45498455 -699.31099212 317.66437146 -712.21582031 324.98608398 C-717.11327105 327.76304185 -722.02492422 330.51389172 -726.94067383 333.25830078 C-748.99084657 345.57176428 -770.88308875 358.05924435 -792.41894531 371.25170898 C-796.23060147 373.58559144 -800.05171429 375.89614592 -803.91113281 378.15014648 C-819.73924295 387.4080977 -834.8780177 397.71285004 -850.06829834 407.97064209 C-851.67828383 409.05715982 -853.28995777 410.14117466 -854.90185547 411.22485352 C-871.72432468 422.53828273 -888.06180054 434.48946356 -903.86816406 447.18530273 C-904.50318848 447.69416016 -905.13821289 448.20301758 -905.79248047 448.72729492 C-926.88948754 465.66048674 -948.42561272 483.26121677 -965.98144531 503.96264648 C-967.47892529 505.72675851 -968.99759189 507.46135854 -970.53613281 509.18920898 C-981.83366976 521.97248002 -992.2782823 535.84668122 -999.86816406 551.18530273 C-1003.73920175 560.23461334 -1006.31556343 569.46205687 -1007.86816406 579.18530273 C-1008.2113973 583.82726252 -1008.30288429 588.43850734 -1008.25927734 593.08935547 C-1008.24319603 595.11876862 -1008.25923318 597.14618357 -1008.27832031 599.17553711 C-1008.29405371 608.52695859 -1007.14947578 617.13949441 -1004.86816406 626.18530273 C-1002.66462502 633.87473587 -999.15094337 641.02830206 -995.05566406 647.87280273 C-985.27296755 662.99821486 -973.58050535 676.5769383 -960.09082031 688.53686523 C-952.64508614 694.78104558 -944.68884433 700.42576798 -936.86816406 706.18530273 C-907.00824554 728.21247685 -907.00824554 728.21247685 -896.05566406 741.99780273 C-889.10113797 751.06221851 -883.32360972 761.05330908 -878.97753906 771.62280273 C-876.15523339 778.93558951 -873.98717993 786.32712463 -873.11425781 794.13842773 C-872.18354261 807.29799062 -872.03327487 820.58427074 -874.58740234 833.56494141 C-875.78265252 839.16932129 -877.22111902 844.69823694 -878.86816406 850.18530273 C-879.26545396 851.58072219 -879.66147997 852.97650276 -880.05566406 854.37280273 C-880.32378906 855.30092773 -880.59191406 856.22905273 -880.86816406 857.18530273 C-883.60236553 855.91216464 -885.82670006 854.5421147 -888.11035156 852.57592773 C-888.70203125 852.06803711 -889.29371094 851.56014648 -889.90332031 851.03686523 C-890.51046875 850.50834961 -891.11761719 849.97983398 -891.74316406 849.43530273 C-892.64228516 848.66573242 -892.64228516 848.66573242 -893.55957031 847.88061523 C-895.34857074 846.3360986 -897.11095181 844.76583408 -898.86816406 843.18530273 C-899.75145386 842.41778687 -899.75145386 842.41778687 -900.65258789 841.63476562 C-902.31738281 840.11108398 -902.31738281 840.11108398 -904.86816406 837.18530273 C-905.0009375 836.32807617 -905.13371094 835.47084961 -905.27050781 834.58764648 C-905.11710938 833.77424805 -904.96371094 832.96084961 -904.80566406 832.12280273 C-904.6703125 831.30682617 -904.53496094 830.49084961 -904.39550781 829.65014648 C-904.05148888 828.04217653 -903.70251489 826.43525636 -903.34790039 824.82958984 C-901.78042377 816.18972255 -902.37472066 806.67379984 -903.03808594 797.95092773 C-903.60952117 792.8130676 -904.75058088 787.96117032 -906.68261719 783.16235352 C-910.90228315 773.53820032 -916.25156407 764.85763684 -922.88378906 756.70874023 C-932.27890649 745.79283042 -943.83504755 737.67247225 -955.46582031 729.34936523 C-964.84302914 722.62913326 -973.75958789 715.59461981 -982.17285156 707.69311523 C-984.33815733 705.67843944 -986.53446557 703.76388432 -988.80566406 701.87280273 C-1001.22507904 690.99298465 -1011.26251283 677.94584132 -1020.19726562 664.13012695 C-1026.65112699 653.83492325 -1031.35740178 642.81390604 -1034.86816406 631.18530273 C-1038.66047775 617.13981112 -1038.23155485 602.58431689 -1038.07910156 588.15014648 C-1037.89469362 576.5332854 -1036.31118256 565.69217941 -1033.07080078 554.54711914 C-1029.04824089 541.74145768 -1022.7353358 529.51759366 -1015.39160156 518.30639648 C-1013.01285735 514.8302544 -1010.47332964 511.49386301 -1007.86816406 508.18530273 C-1007.37058594 507.54786133 -1006.87300781 506.91041992 -1006.36035156 506.25366211 C-999.36234666 497.33379133 -991.98019192 488.86625335 -984.20556641 480.61987305 C-982.23966444 478.51113994 -980.33835484 476.34665731 -978.43066406 474.18530273 C-971.04849564 465.95754048 -963.23594134 457.99570425 -954.80175781 450.84155273 C-952.56479471 448.92544697 -950.41012828 446.93017417 -948.24316406 444.93530273 C-943.71400813 440.84377997 -938.99223654 437.07175237 -934.17114258 433.3359375 C-930.42986922 430.43221007 -926.78453941 427.44743764 -923.18066406 424.37280273 C-915.83947231 418.20970674 -908.08109008 412.62878662 -900.33398438 406.9909668 C-897.96568369 405.25671413 -895.61356227 403.5029796 -893.26660156 401.73999023 C-880.79055413 392.39061808 -867.90930782 383.72417431 -854.86816406 375.18530273 C-854.0816748 374.66838867 -853.29518555 374.15147461 -852.48486328 373.61889648 C-819.26141656 351.80184447 -784.94872679 331.48472171 -750.12646484 312.33374023 C-743.62182178 308.75041495 -737.20379586 305.06013327 -730.86816406 301.18530273 C-731.47249268 301.3606958 -732.07682129 301.53608887 -732.69946289 301.71679688 C-750.23520479 306.7500684 -767.85729016 310.59034295 -785.76611328 314.00900269 C-790.25466525 314.86606508 -794.72953853 315.7768544 -799.20410156 316.70483398 C-808.18962653 318.50465703 -817.23424881 319.83630579 -826.30566406 321.12280273 C-827.21012268 321.25158813 -828.1145813 321.38037354 -829.04644775 321.51306152 C-848.93409901 324.3260875 -868.85302858 326.51733045 -888.86816406 328.18530273 C-889.57841736 328.24588867 -890.28867065 328.30647461 -891.02044678 328.36889648 C-913.15264813 330.24312801 -935.29621522 330.36431982 -957.49316406 330.37280273 C-958.5260298 330.37368645 -958.5260298 330.37368645 -959.57976151 330.37458801 C-980.76247136 330.39008907 -1001.58908487 329.91381654 -1022.61816406 327.31030273 C-1024.11098495 327.12835442 -1025.60382377 326.94655326 -1027.09667969 326.76489258 C-1030.02949567 326.40653554 -1032.96170667 326.04367718 -1035.89355469 325.67749023 C-1039.27375652 325.25622117 -1042.65629798 324.85847426 -1046.04003906 324.46655273 C-1072.9254768 321.23673826 -1099.86354927 314.18297422 -1124.96679688 303.98852539 C-1131.36903636 301.2839327 -1137.65272982 298.29301986 -1143.86816406 295.18530273 C-1143.86816406 283.63530273 -1143.86816406 272.08530273 -1143.86816406 260.18530273 C-1140.66468303 261.46669515 -1137.68899962 262.71880978 -1134.62988281 264.25170898 C-1110.59150884 276.12328139 -1085.48265842 285.198972 -1059.06494141 290.09741211 C-1054.02951117 290.99826657 -1048.98345452 291.82566173 -1043.93066406 292.62280273 C-1043.13682312 292.74867767 -1042.34298218 292.87455261 -1041.52508545 293.00424194 C-1032.35774628 294.43676514 -1023.2718551 295.49925601 -1014.00268555 295.95898438 C-1010.86816406 296.18530273 -1010.86816406 296.18530273 -1008.5222168 296.67578125 C-1004.60753938 297.42731577 -1000.69696047 297.56024541 -996.71972656 297.73999023 C-995.80470367 297.78203583 -994.88968079 297.82408142 -993.94692993 297.86740112 C-982.04923818 298.36331976 -970.14903883 298.33791742 -958.24316406 298.31030273 C-956.46431824 298.30797638 -956.46431824 298.30797638 -954.64953613 298.30560303 C-941.30357819 298.28510544 -927.95766011 298.26205813 -914.61816406 297.81030273 C-913.62349121 297.77952637 -912.62881836 297.74875 -911.60400391 297.71704102 C-907.33395905 297.53441798 -903.32231293 297.12971151 -899.14941406 296.19702148 C-893.06234321 294.88089806 -886.96554638 294.72634482 -880.75830078 294.4666748 C-830.05592743 292.24273429 -778.5371584 282.39710923 -729.90966797 268.06958008 C-726.74053729 267.14819693 -723.5623788 266.26637653 -720.37988281 265.39233398 C-706.63823153 261.59411102 -693.07818655 257.3809928 -679.55566406 252.87280273 C-678.77186371 252.6121402 -677.98806335 252.35147766 -677.18051147 252.08291626 C-674.93300876 251.33355155 -672.68732067 250.57903173 -670.44238281 249.82202148 C-669.77996582 249.60041351 -669.11754883 249.37880554 -668.43505859 249.15048218 C-664.14075959 247.690511 -660.01934418 246.00112993 -655.86816406 244.18530273 C-653.64423473 243.33809156 -651.41457899 242.50582244 -649.18066406 241.68530273 C-623.1693406 231.98281335 -597.66021538 221.24429698 -572.19708252 210.19549561 C-570.05662531 209.26704978 -567.9154373 208.34031741 -565.77392578 207.41430664 C-555.08194998 202.78515901 -544.4708814 198.1185219 -534.10644531 192.79077148 C-529.83253841 190.67186227 -525.4652883 188.80804206 -521.08239436 186.92831594 C-516.45609759 184.92471501 -511.92972118 182.77784231 -507.43292236 180.49992371 C-506.02276689 179.79026333 -504.61260272 179.08062022 -503.20243073 178.37099266 C-502.48483361 178.00894918 -501.7672365 177.6469057 -501.02789402 177.27389121 C-497.55638887 175.52411667 -494.07923024 173.78565931 -490.60272217 172.04585266 C-489.15948464 171.32287626 -487.71628899 170.59981627 -486.27313232 169.87667847 C-468.09319675 160.76767313 -449.91069034 151.66380908 -431.72675705 142.56278706 C-421.67937222 137.53395202 -411.63274512 132.50361418 -401.58789062 127.46972656 C-392.76865781 123.05005426 -383.94795931 118.63332253 -375.12558484 114.21992463 C-370.48043422 111.89606311 -365.83596009 109.57087508 -361.19326019 107.24212074 C-340.56065293 96.8942038 -319.88582876 86.73220454 -298.86816406 77.18530273 C-297.62235848 76.61776683 -296.37663365 76.05005365 -295.13097954 75.48218536 C-244.96432581 52.61656814 -193.45037595 31.5922175 -139.86816406 18.18530273 C-138.99434082 17.96181152 -138.12051758 17.73832031 -137.22021484 17.50805664 C-131.12673698 15.95329867 -125.01078754 14.53216965 -118.86816406 13.18530273 C-117.82885742 12.95488281 -116.78955078 12.72446289 -115.71875 12.48706055 C-98.21024374 8.67378018 -80.64233568 6.08701015 -62.86816406 3.87280273 C-61.83718597 3.74374542 -60.80620789 3.61468811 -59.74398804 3.48171997 C-39.74049302 0.99869932 -20.15639021 -0.00127475 0 0 Z " fill="#528ED3" transform="translate(1177.8681640625,513.814697265625)"/>
<path d="M0 0 C0.66 0.33 1.32 0.66 2 1 C1.14341797 1.51832397 1.14341797 1.51832397 0.26953125 2.04711914 C-6.83096981 6.34735304 -13.91733724 10.67046258 -21 15 C-21.95600098 15.58233398 -22.91200195 16.16466797 -23.89697266 16.76464844 C-49.34598506 32.29968078 -74.28478551 48.91823709 -98 67 C-99.15346335 67.87003365 -100.30710096 68.73983633 -101.4609375 69.609375 C-109.52177296 75.71777975 -117.35507775 82.10551435 -125.1796875 88.51171875 C-126.77261865 89.81409379 -128.3702952 91.11066032 -129.96875 92.40625 C-148.29897148 107.28607685 -165.35372918 123.27187172 -182.0625 139.9375 C-182.65130951 140.52363068 -183.24011902 141.10976135 -183.84677124 141.71365356 C-190.12138381 147.96659671 -196.26398264 154.24234676 -202 161 C-203.45445517 162.60768373 -204.91220895 164.21239715 -206.375 165.8125 C-213.63797483 173.87563308 -220.29420036 182.3316299 -226.7578125 191.04296875 C-228.89640417 193.86337622 -231.11049374 196.59267487 -233.375 199.3125 C-259.98416927 231.62035146 -281.46349699 268.92981679 -298.421875 307.12475586 C-306.8162688 326.50416406 -313.83243611 346.5162595 -319 367 C-319.2470166 367.97598145 -319.4940332 368.95196289 -319.74853516 369.95751953 C-327.35334431 400.6223833 -331.22682464 430.90038969 -330.27531433 462.49591064 C-329.94860303 471.52287162 -329.14241639 480.21255163 -327 489 C-326.76893555 489.96856934 -326.53787109 490.93713867 -326.29980469 491.93505859 C-322.86739851 505.95179653 -318.43392047 519.08811265 -312 532 C-311.68981934 532.64582031 -311.37963867 533.29164063 -311.06005859 533.95703125 C-304.96291084 546.62207428 -296.78148954 557.72199462 -287.5 568.25 C-286.01069444 569.84339681 -284.51012349 571.42631913 -283 573 C-282.11054687 573.95261719 -281.22109375 574.90523437 -280.3046875 575.88671875 C-272.9220501 583.65080701 -264.8576797 589.99665096 -256 596 C-255.04480469 596.65097656 -254.08960938 597.30195312 -253.10546875 597.97265625 C-221.76941228 618.16319332 -186.30726346 630.88203307 -150.83517456 641.65762329 C-146.57625455 642.93146751 -142.30874955 644.17511771 -138.03833008 645.40979004 C-136.06219099 645.98199225 -134.08747688 646.55882695 -132.11328125 647.13769531 C-116.70913438 651.65311543 -101.29109558 656.09452361 -85.78564453 660.25097656 C-82.76025224 661.06446504 -79.73746438 661.88721254 -76.71484375 662.7109375 C-66.04461401 665.61131224 -55.36428528 668.42861377 -44.625 671.0625 C-34.81758583 673.47522502 -25.14529691 676.21913996 -15.50366211 679.22363281 C-13.68629248 679.78718576 -11.86645194 680.34278988 -10.04516602 680.89355469 C13.0875428 687.9116789 35.31496911 696.28811727 57 707 C57.8863916 707.4316748 58.7727832 707.86334961 59.68603516 708.30810547 C75.87353403 716.23926763 90.47629645 726.1252067 103.921875 738.14453125 C111.66211587 745.24291004 118.01434826 753.14940495 123.63671875 761.99609375 C128.54423827 770.0682198 132.29958738 778.83130179 134.8125 787.9375 C138.28770947 804.00498082 138.92601729 820.61027211 138 837 C137.69342072 838.33973805 137.36531795 839.67507295 137 841 C136.90894162 842.62298166 136.86993606 844.24947379 136.875 845.875 C136.87113281 847.10863281 136.87113281 847.10863281 136.8671875 848.3671875 C137.01524865 851.30228206 137.46948052 854.11161617 138 857 C85.852984 884.83268444 31.17001253 908.65641277 -26.25195312 923.28417969 C-29.37563469 924.09784656 -32.47008952 924.99119789 -35.56689453 925.90063477 C-93.04769846 942.64029949 -154.97286421 949.87638433 -214.66352844 950.23664856 C-218.23406132 950.24866079 -221.80444864 950.25207416 -225.375 950.25 C-226.49214386 950.24940582 -227.60928772 950.24881165 -228.76028442 950.24819946 C-250.8370965 950.20314017 -272.75668219 949.29302602 -294.74145508 947.27050781 C-297.75220944 946.99405834 -300.76370295 946.72700902 -303.77539062 946.4609375 C-305.70838164 946.28699436 -307.64132638 946.11253593 -309.57421875 945.9375 C-310.46574142 945.85830322 -311.3572641 945.77910645 -312.27580261 945.69750977 C-313.10219742 945.62072998 -313.92859222 945.5439502 -314.7800293 945.46484375 C-315.50119431 945.399021 -316.22235931 945.33319824 -316.96537781 945.26538086 C-319.03452343 944.99549702 -320.98760205 944.54585014 -323 944 C-322.99555878 943.09370346 -322.99111755 942.18740692 -322.98654175 941.25364685 C-322.94621585 932.64938669 -322.91589024 924.04515896 -322.89637566 915.44082546 C-322.88600529 911.0188584 -322.87197181 906.59697041 -322.84912109 902.17504883 C-322.82714897 897.89562787 -322.81538088 893.61628224 -322.81024551 889.33680916 C-322.80659294 887.71640909 -322.79946271 886.09601243 -322.78853989 884.47564507 C-322.69390991 869.83513339 -324.20081211 856.01993627 -327.6875 841.75 C-327.94805176 840.68080322 -328.20860352 839.61160645 -328.47705078 838.51000977 C-332.21493105 823.66373428 -337.443579 809.2826643 -344.90234375 795.87890625 C-349.51012543 787.99156466 -354.9405382 780.85594165 -361.25 774.25 C-371.10521291 764.83585956 -382.41216262 757.76007289 -394.39453125 751.36328125 C-412.43531216 741.97814423 -431.7086424 734.89515102 -450.57421875 727.37890625 C-512.92072509 702.43098784 -512.92072509 702.43098784 -533.859375 686.484375 C-541.19978886 680.72524981 -547.761671 674.82122391 -553.25 667.25 C-558.57846348 659.60087511 -562.88010586 651.55275499 -566.2109375 642.828125 C-569.34624951 633.35146764 -571.54369203 623.42744277 -572.15673828 613.44873047 C-572.743347 597.51007056 -571.09821536 582.10207605 -567.36254883 566.60571289 C-558.60956028 532.61942861 -542.56793776 500.50563029 -524.87158203 470.35498047 C-520.02678546 462.16721301 -515.02238786 454.07960355 -510 446 C-508.90445884 444.21774846 -507.80936689 442.43522066 -506.71484375 440.65234375 C-499.96577057 429.73109639 -492.6552083 419.30257619 -485 409 C-484.48405273 408.30245605 -483.96810547 407.60491211 -483.43652344 406.88623047 C-473.24353782 393.11761022 -462.74858596 379.69105464 -451.51611328 366.75439453 C-449.99950965 364.99943259 -448.49587008 363.2341989 -446.99609375 361.46484375 C-441.0910363 354.50572393 -435.04401636 347.71457789 -428.8203125 341.0390625 C-426.23804839 338.26772413 -423.70782308 335.45288793 -421.1875 332.625 C-418.01396083 329.07572304 -414.7418703 325.67735658 -411.3125 322.375 C-410.879375 321.92125 -410.44625 321.4675 -410 321 C-409.67 320.34 -409.34 319.68 -409 319 C-408.34 319 -407.68 319 -407 319 C-406.78102051 318.45577393 -406.56204102 317.91154785 -406.33642578 317.35083008 C-404.55934561 314.2248701 -402.15642685 311.89028185 -399.6171875 309.38671875 C-399.08408966 308.85407913 -398.55099182 308.32143951 -398.0017395 307.7726593 C-396.87266483 306.64660079 -395.74116559 305.5229688 -394.60742188 304.40161133 C-392.89664129 302.70891256 -391.19382508 301.00852511 -389.4921875 299.30664062 C-380.51009631 290.35469068 -380.51009631 290.35469068 -375.9453125 286.45703125 C-370.31227788 281.64545014 -365.20082453 276.26824263 -360 271 C-348.00009885 258.84454458 -348.00009885 258.84454458 -341.640625 253.41796875 C-339.48072328 251.55119655 -337.48713931 249.54828205 -335.5 247.5 C-332.25485683 244.21635513 -328.92348924 241.14110377 -325.421875 238.13671875 C-322.09299906 235.19979111 -318.86294427 232.16149888 -315.625 229.125 C-310.56990218 224.38782895 -305.48866547 219.68821043 -300.3203125 215.07421875 C-298.72437798 213.64755001 -297.13623875 212.21212832 -295.5546875 210.76953125 C-291.3576748 206.94748677 -287.1111827 203.24567956 -282.6875 199.6875 C-278.46601345 196.27577674 -274.45926658 192.70682034 -270.5 189 C-265.79242267 184.59633741 -260.96329079 180.43924138 -255.93359375 176.40234375 C-252.45097326 173.55039754 -249.07208188 170.59190824 -245.6875 167.625 C-240.29501789 162.91034003 -234.78762149 158.40215643 -229.12304688 154.01953125 C-225.21816695 150.98874706 -221.43308448 147.84984839 -217.6875 144.625 C-212.09976316 139.82900249 -206.30499901 135.34699841 -200.43383789 130.90454102 C-195.76500296 127.36729179 -191.17424132 123.75185369 -186.625 120.0625 C-180.3772941 115.01390761 -173.95755047 110.23156809 -167.47143555 105.49462891 C-161.39903982 101.05330621 -155.40733413 96.51552309 -149.4375 91.9375 C-140.7483841 85.28503297 -131.94626323 78.81271099 -123.03857422 72.45654297 C-121.08553108 71.06111119 -119.13766743 69.65877608 -117.19140625 68.25390625 C-116.00270624 67.39829567 -114.81390994 66.54281885 -113.625 65.6875 C-112.62726563 64.96949219 -111.62953125 64.25148438 -110.6015625 63.51171875 C-106.50816188 60.62107192 -102.32345243 57.86671909 -98.14941406 55.09448242 C-95.19809461 53.1317406 -92.25575421 51.15639059 -89.31640625 49.17578125 C-63.83253897 32.04181645 -38.2738358 16.12192734 -10 4 C-9.07316406 3.60006836 -8.14632812 3.20013672 -7.19140625 2.78808594 C-6.29292969 2.41200195 -5.39445313 2.03591797 -4.46875 1.6484375 C-3.65857422 1.30731934 -2.84839844 0.96620117 -2.01367188 0.61474609 C-1.34916016 0.41187988 -0.68464844 0.20901367 0 0 Z " fill="#64ACFE" transform="translate(1025,609)"/>
<path d="M0 0 C0.66 0.33 1.32 0.66 2 1 C0.66195312 2.22976563 0.66195312 2.22976563 -0.703125 3.484375 C-1.88545786 4.57287192 -3.06774723 5.66141608 -4.25 6.75 C-4.83652344 7.28882813 -5.42304687 7.82765625 -6.02734375 8.3828125 C-8.51264898 10.67264428 -10.95447142 12.95261312 -13.296875 15.390625 C-13.85890625 15.92171875 -14.4209375 16.4528125 -15 17 C-15.66 17 -16.32 17 -17 17 C-17 17.66 -17 18.32 -17 19 C-17.66 19 -18.32 19 -19 19 C-19 19.66 -19 20.32 -19 21 C-20.50390625 22.4453125 -20.50390625 22.4453125 -22.5625 24.125 C-26.10092543 27.1304927 -29.09081245 30.29668958 -32.0859375 33.83203125 C-34.29225484 36.33102333 -36.62683693 38.65910047 -39 41 C-42.52754647 44.4904144 -45.87384474 48.04644314 -49.09765625 51.81640625 C-51.00695873 54.00798754 -52.97021767 56.14346134 -54.94750977 58.27368164 C-59.72960583 63.42872722 -64.29310929 68.69453832 -68.703125 74.17578125 C-70.72558413 76.66258049 -72.79218554 79.10344567 -74.8828125 81.53295898 C-81.94340683 89.75476892 -88.49569257 98.33504295 -95 107 C-95.474375 107.62632324 -95.94875 108.25264648 -96.4375 108.89794922 C-110.12292521 126.98156684 -121.84845827 146.27387933 -133 166 C-133.43296387 166.76376953 -133.86592773 167.52753906 -134.31201172 168.31445312 C-144.89849537 187.15621124 -153.1311782 207.23384992 -160.18164062 227.63427734 C-160.90517958 229.72589203 -161.64482832 231.81078409 -162.390625 233.89453125 C-168.9952112 252.8513657 -174.4274886 272.94344805 -176 293 C-176.88773302 312.42518847 -177.4683577 332.98629417 -173.3125 352.0625 C-173.05303589 353.26277832 -173.05303589 353.26277832 -172.78833008 354.48730469 C-169.51638255 369.05394115 -164.76497888 382.69688812 -158 396 C-157.60151855 396.80195801 -157.20303711 397.60391602 -156.79248047 398.43017578 C-150.72566109 410.62094091 -144.15989576 422.08847467 -136 433 C-134.94619141 434.41925781 -134.94619141 434.41925781 -133.87109375 435.8671875 C-124.51782538 447.82943206 -113.35896308 458.86150878 -101.11328125 467.84765625 C-95.86910276 471.4731799 -90.5490148 474.86154292 -85 478 C-84.27377441 478.41362793 -83.54754883 478.82725586 -82.79931641 479.25341797 C-60.84705864 491.6136997 -37.4428468 500.0510711 -13 506 C-5.03869187 507.88036066 2.9618086 509.48721318 11 511 C12.33200439 511.26441895 12.33200439 511.26441895 13.69091797 511.53417969 C49.4319067 518.55720162 86.07157177 519.37981577 122.375 519.3125 C123.14075977 519.31137711 123.90651955 519.31025421 124.69548416 519.30909729 C150.01670933 519.26443184 175.26903162 518.75512026 200.52241516 516.77619934 C214.76973683 515.67484525 229.03814814 515.00691877 243.3125 514.375 C244.04067554 514.34258965 244.76885109 514.31017929 245.51909256 514.2767868 C327.94092119 510.62806031 327.94092119 510.62806031 362 516 C362.86657227 516.13341797 363.73314453 516.26683594 364.62597656 516.40429688 C370.9549992 517.40795254 377.08695527 518.42959063 383 521 C360.72277095 569.21107397 332.83571816 615.21595083 300 657 C299.07145442 658.18737477 298.1430738 659.37487855 297.21484375 660.5625 C294.90331202 663.51619011 292.58296137 666.46278272 290.2578125 669.40576172 C289.11639653 670.85247101 287.97979678 672.30297693 286.84375 673.75390625 C282.83412426 678.83753889 278.63073656 683.67228853 274.265625 688.453125 C272.02636676 690.97036013 269.91501288 693.55546536 267.8125 696.1875 C259.36615861 706.60907655 249.92233752 716.16766035 240.3828125 725.58203125 C238.29769801 727.69790973 236.35333592 729.85718492 234.4375 732.125 C231.16812185 735.95218674 227.51092825 739.19683578 223.734375 742.515625 C220.73112236 745.24429454 217.89931681 748.10106645 215.0625 751 C210.54372646 755.59376196 205.82135174 759.71936665 200.76953125 763.73046875 C197.79697323 766.16637313 194.98864557 768.74742969 192.1875 771.375 C186.92228931 776.28401458 181.38318881 780.72881677 175.6875 785.125 C172.48451679 787.6025212 169.35536552 790.16026691 166.23364258 792.73901367 C157.81516984 799.68205193 149.11121038 806.13511666 140.20410156 812.43554688 C138.11409833 813.91901395 136.03605996 815.41769109 133.9609375 816.921875 C125.4219262 823.07761622 116.67190001 828.87996285 107.8125 834.5625 C106.19879517 835.5995105 106.19879517 835.5995105 104.55249023 836.6574707 C103.53098877 837.30804443 102.5094873 837.95861816 101.45703125 838.62890625 C100.54928955 839.20713135 99.64154785 839.78535645 98.70629883 840.38110352 C95.86969048 842.0779506 92.97326017 843.55827868 90 845 C90.01571045 844.2064209 90.0314209 843.4128418 90.04760742 842.59521484 C90.33416113 825.83484547 90.15121755 809.53446249 87 793 C86.86609863 792.2771582 86.73219727 791.55431641 86.59423828 790.80957031 C84.57246965 780.35518854 80.87009088 770.72588768 76.14599609 761.20947266 C70.17353879 749.69461569 62.79739066 739.50377198 54 730 C53.51192871 729.46810059 53.02385742 728.93620117 52.52099609 728.38818359 C41.8756868 716.91632166 29.79527709 707.44868553 16.49291992 699.22827148 C7.23408315 693.64572454 -2.2172973 688.59397818 -12 684 C-12.80598633 683.61634277 -13.61197266 683.23268555 -14.44238281 682.83740234 C-27.81118053 676.49489075 -41.38665699 670.99508136 -55.30371094 665.97558594 C-57.67978736 665.11586108 -60.04792991 664.23817726 -62.4140625 663.3515625 C-80.86370293 656.52131724 -100.07248 651.93535194 -119.10644531 647.05786133 C-155.81944429 637.64963266 -155.81944429 637.64963266 -171.7590332 632.8515625 C-176.63555419 631.38577347 -181.53469996 630.01879557 -186.44506836 628.67089844 C-202.75644136 624.17949054 -218.90599361 619.2102436 -235 614 C-235.64016052 613.79290405 -236.28032104 613.58580811 -236.93988037 613.37243652 C-263.82699383 604.64815656 -290.75362281 594.37494162 -314.5625 578.875 C-319.91413447 575.1654291 -325.00994326 571.18063282 -330 567 C-331.18722656 566.01580078 -331.18722656 566.01580078 -332.3984375 565.01171875 C-336.57571869 561.47202259 -336.57571869 561.47202259 -338 560 C-338 559.34 -338 558.68 -338 558 C-338.66 558 -339.32 558 -340 558 C-343.23344991 554.53175601 -346.08241634 550.73507087 -349 547 C-349.66644531 546.17113281 -350.33289063 545.34226562 -351.01953125 544.48828125 C-357.9925725 535.44178986 -363.70218435 525.16805612 -367.97900391 514.57519531 C-369.88289845 509.45118537 -371.50129544 504.25524864 -373 499 C-373.31582031 497.91074219 -373.63164063 496.82148437 -373.95703125 495.69921875 C-377.50411588 482.50685965 -378.44142292 469.33399667 -378.4375 455.75 C-378.4385675 454.95541382 -378.43963501 454.16082764 -378.44073486 453.34216309 C-378.39114618 427.42338088 -373.9761125 401.93400123 -367 377 C-366.68579102 375.87352051 -366.37158203 374.74704102 -366.04785156 373.58642578 C-360.70404768 354.77447727 -353.88106327 336.86484144 -346 319 C-345.60312988 318.09572266 -345.20625977 317.19144531 -344.79736328 316.25976562 C-338.77445381 302.67697465 -331.51461087 289.80531732 -324 277 C-323.41492676 276.00291016 -322.82985352 275.00582031 -322.22705078 273.97851562 C-315.44453902 262.48700813 -308.43765621 251.34977805 -300.32666016 240.75048828 C-298.47497273 238.30724226 -296.68042863 235.82400525 -294.88183594 233.34155273 C-282.84386794 216.75425372 -269.78442751 201.16036855 -256 186 C-254.45717564 184.29271213 -252.9155139 182.58437293 -251.375 180.875 C-250.63894531 180.0603125 -249.90289063 179.245625 -249.14453125 178.40625 C-246.51036929 175.45061473 -243.94937761 172.43589851 -241.41015625 169.3984375 C-240.94480469 168.93695312 -240.47945312 168.47546875 -240 168 C-239.34 168 -238.68 168 -238 168 C-238 167.34 -238 166.68 -238 166 C-237.34 166 -236.68 166 -236 166 C-236 165.34 -236 164.68 -236 164 C-235.34 164 -234.68 164 -234 164 C-234 163.34 -234 162.68 -234 162 C-233.34 162 -232.68 162 -232 162 C-232 161.34 -232 160.68 -232 160 C-230.63671875 158.66015625 -230.63671875 158.66015625 -228.6875 157.0625 C-225.11196665 154.03120713 -221.79169374 150.837603 -218.5 147.5 C-214.16323742 143.1160987 -209.70305369 138.98632119 -205 135 C-203.92639799 134.07501361 -202.85354805 133.14915396 -201.78125 132.22265625 C-164.39162301 99.95673557 -124.12109959 71.71410359 -82 46 C-81.04528809 45.41492676 -80.09057617 44.82985352 -79.10693359 44.22705078 C-56.78583366 30.57312791 -33.95276837 17.93064745 -10.67773438 5.98388672 C-9.70900391 5.48646973 -8.74027344 4.98905273 -7.7421875 4.4765625 C-6.8951123 4.04424316 -6.04803711 3.61192383 -5.17529297 3.16650391 C-2.81271007 1.94420603 -2.81271007 1.94420603 0 0 Z " fill="#3F99FE" transform="translate(1103,603)"/>
<path d="M0 0 C0.99 0.33 1.98 0.66 3 1 C2.10023438 1.48726562 1.20046875 1.97453125 0.2734375 2.4765625 C-29.4035826 18.74495818 -57.78557934 38.37766119 -84.97363281 58.50195312 C-87.1611926 60.119166 -89.35736765 61.72420148 -91.5546875 63.328125 C-101.79353175 70.81710218 -111.90338859 78.46708597 -121.98046875 86.171875 C-126.46707381 89.59984291 -130.97738216 92.99475253 -135.5 96.375 C-145.81829538 104.09930335 -156.00178818 111.94998687 -165.98168945 120.10864258 C-170.34216623 123.6693584 -174.74496322 127.1674122 -179.1875 130.625 C-184.89034719 135.07138326 -190.42321881 139.69141589 -195.921875 144.38671875 C-198.7270732 146.77882269 -201.57463157 149.11455851 -204.4375 151.4375 C-211.0637053 156.83627509 -217.53133557 162.4145049 -224 168 C-224.63550781 168.54769043 -225.27101563 169.09538086 -225.92578125 169.65966797 C-232.95182652 175.71593595 -239.94315614 181.80130902 -246.81640625 188.03125 C-248.81737985 189.83534784 -250.8395031 191.61007017 -252.875 193.375 C-256.84330549 196.82919304 -260.71012559 200.39130558 -264.57983398 203.95483398 C-267.33438092 206.487107 -270.10725075 208.99020203 -272.9375 211.4375 C-278.16035567 215.96973013 -283.20305725 220.6999043 -288.27246094 225.40185547 C-289.99229445 226.99287161 -291.71779041 228.57749459 -293.4453125 230.16015625 C-298.76531452 235.03899484 -304.00952022 239.94701775 -309.06713867 245.1003418 C-310.79740244 246.80088271 -312.56935415 248.36250699 -314.42578125 249.921875 C-318.17532189 253.17886373 -321.68824462 256.62469713 -325.1796875 260.15234375 C-325.99456886 260.9754882 -325.99456886 260.9754882 -326.82591248 261.81526184 C-329.09035115 264.10744586 -331.35095468 266.40333712 -333.60742188 268.70336914 C-335.2730413 270.39900186 -336.94467587 272.08851301 -338.6171875 273.77734375 C-339.12861298 274.30222885 -339.64003845 274.82711395 -340.16696167 275.36790466 C-341.40717829 276.61695159 -342.69933895 277.81402517 -344 279 C-344.66 279 -345.32 279 -346 279 C-346 279.66 -346 280.32 -346 281 C-346.66 281 -347.32 281 -348 281 C-348 281.66 -348 282.32 -348 283 C-349.36328125 284.33984375 -349.36328125 284.33984375 -351.3125 285.9375 C-355.0157472 289.08326912 -358.50238092 292.38075917 -361.9375 295.8125 C-362.6641687 296.53264282 -362.6641687 296.53264282 -363.40551758 297.26733398 C-364.6245374 298.49112661 -365.81452354 299.74368663 -367 301 C-367.33 301.66 -367.66 302.32 -368 303 C-368.66 303 -369.32 303 -370 303 C-370.2678833 303.59458008 -370.5357666 304.18916016 -370.81176758 304.80175781 C-372 307 -372 307 -373.40112305 308.61230469 C-373.93261963 309.12696289 -374.46411621 309.64162109 -375.01171875 310.171875 C-375.60098145 310.74945557 -376.19024414 311.32703613 -376.79736328 311.92211914 C-377.4211084 312.52531982 -378.04485352 313.12852051 -378.6875 313.75 C-383.01682038 318.00565536 -387.24798946 322.25330573 -391.171875 326.890625 C-393.16147756 329.18632026 -395.22229834 331.40291408 -397.29614258 333.62231445 C-402.27783785 338.95527817 -407.03708748 344.38205322 -411.60546875 350.078125 C-413.88134245 352.85521069 -416.22335318 355.55384188 -418.59667969 358.24707031 C-425.62887491 366.23461397 -432.13257498 374.53813572 -438.52148438 383.04541016 C-439.84703258 384.79777788 -441.18957369 386.53390214 -442.546875 388.26171875 C-463.50225975 415.00380288 -481.51691376 444.16426049 -497.84716797 473.91796875 C-499.13128694 476.2371061 -500.4425099 478.53993347 -501.75390625 480.84375 C-514.54452108 503.52301388 -524.83452794 527.28036151 -533 552 C-533.26248535 552.79293457 -533.5249707 553.58586914 -533.79541016 554.40283203 C-538.81059413 569.82038008 -542.42244289 585.94258092 -543.14013672 602.16821289 C-543.54534662 616.26286492 -543.63335695 630.21978649 -540.390625 644.0078125 C-536.92585246 657.08603603 -531.78504079 669.88963022 -525.0625 681.640625 C-521.73175959 687.06569461 -518.03179192 692.07843331 -514 697 C-513.31421875 697.85078125 -512.6284375 698.7015625 -511.921875 699.578125 C-504.13704639 708.74692313 -494.51228343 715.78027775 -484.5625 722.4375 C-457.04593285 739.92657672 -425.99490442 751.53645447 -395.89892578 763.70703125 C-386.0877999 767.67671164 -376.29374613 771.67888182 -366.55859375 775.83203125 C-365.72590973 776.18573288 -364.89322571 776.53943451 -364.03530884 776.90385437 C-352.17711656 781.99742779 -340.78413643 787.72635298 -330.63671875 795.76953125 C-324.91015611 800.61377905 -319.89292241 805.47380873 -315.57958984 811.65551758 C-308.99817973 821.56421177 -304.54125443 832.53893898 -300.71875 843.76171875 C-297.18990551 855.4844332 -294.31555679 868.31861597 -293.87060547 880.55981445 C-293.86947754 881.8149585 -293.86834961 883.07010254 -293.8671875 884.36328125 C-293.86586823 885.06110214 -293.86454895 885.75892303 -293.8631897 886.47789001 C-293.86127622 888.7561386 -293.86761898 891.03426386 -293.875 893.3125 C-293.87588623 894.09258423 -293.87677246 894.87266846 -293.87768555 895.6763916 C-293.90033436 912.79453791 -294.38416226 929.89412414 -295 947 C-303.35817492 946.27642881 -311.48840999 944.59009889 -319.6875 942.875 C-320.42932526 942.72071533 -321.17115051 942.56643066 -321.93545532 942.4074707 C-344.40206788 937.72801435 -366.67743573 932.73799451 -388.56152344 925.76269531 C-391.36185824 924.88681967 -394.17805275 924.08554035 -397.00341797 923.29516602 C-435.25655441 912.51262958 -472.50107575 897.14761518 -507.8515625 879.1015625 C-511.03733638 877.47623226 -514.24485693 875.90042784 -517.4609375 874.3359375 C-532.05042126 867.20529737 -546.08978108 859.37333356 -560 851 C-560.83289551 850.50081055 -561.66579102 850.00162109 -562.52392578 849.48730469 C-590.26563284 832.83206252 -616.91375378 814.51710587 -642.24853516 794.38378906 C-644.03624407 792.97136446 -645.83465783 791.57374371 -647.63671875 790.1796875 C-656.1826706 783.5563164 -664.38675223 776.69937048 -672 769 C-671.74605469 768.14019531 -671.49210937 767.28039063 -671.23046875 766.39453125 C-667.30203141 752.90248242 -663.94368522 739.75371703 -663.75830078 725.62695312 C-663.72810961 714.48108476 -664.04475858 703.79573246 -667 693 C-670.14045686 682.21514772 -674.97983305 672.28374843 -680.87402344 662.7421875 C-683.59038606 658.53924654 -686.69903349 654.75051448 -690 651 C-690.66257812 650.2059375 -691.32515625 649.411875 -692.0078125 648.59375 C-700.58521643 638.59205391 -710.76738057 630.39061015 -721.52905273 622.86157227 C-732.08504704 615.47545808 -742.45471517 607.74382648 -751.890625 598.95703125 C-753.81586196 597.17083919 -755.79497572 595.49238076 -757.8125 593.8125 C-767.02666564 585.73611595 -775.19766919 576.49422064 -781.94140625 566.2734375 C-782.62074219 565.19320312 -783.30007813 564.11296875 -784 563 C-784.35433105 562.44344727 -784.70866211 561.88689453 -785.07373047 561.31347656 C-789.80853852 553.79865672 -793.25638457 546.30983365 -795.9921875 537.86328125 C-798.64788106 527.6831226 -799.40533369 517.8660153 -799.375 507.375 C-799.37445618 506.66723419 -799.37391235 505.95946838 -799.37335205 505.23025513 C-799.34250615 496.49852021 -799.17699661 487.94624046 -796.83203125 479.47631836 C-796.26347206 477.63732512 -795.63236216 475.8180412 -795 474 C-794.5875 472.7521875 -794.175 471.504375 -793.75 470.21875 C-790.02601396 459.65204163 -784.21586612 450.35581436 -777.76464844 441.2578125 C-761.86937342 419.39699844 -742.6611332 398.42017113 -722 381 C-720.98729193 380.12484142 -719.97567234 379.2484225 -718.96484375 378.37109375 C-706.8953743 367.91749649 -694.604822 357.72973594 -681.73193359 348.27539062 C-679.72864261 346.80017324 -677.73355691 345.31416456 -675.73828125 343.828125 C-650.2587664 324.89238307 -623.94686633 307.26778163 -596.84521484 290.73681641 C-593.7120109 288.82420161 -590.5847174 286.90209226 -587.45703125 284.98046875 C-565.92273008 271.77802856 -544.00021414 259.31706072 -521.94287109 247.00927734 C-515.41424938 243.36420835 -508.91802956 239.6672614 -502.4375 235.9375 C-494.0598461 231.1220862 -485.58722397 226.50036524 -477.07739258 221.92333984 C-470.20991877 218.22127774 -463.40369993 214.42442185 -456.625 210.5625 C-445.25778679 204.09415623 -433.75104412 197.89999944 -422.22119141 191.72753906 C-417.05639213 188.95763458 -411.90267624 186.16737492 -406.75 183.375 C-405.75685791 182.83713867 -404.76371582 182.29927734 -403.74047852 181.74511719 C-398.19627779 178.74028324 -392.66032886 175.72089332 -387.13037109 172.68994141 C-354.20917563 154.66792443 -320.92829882 137.33832081 -286.99658203 121.28613281 C-278.28828038 117.16272284 -269.63941103 112.92034922 -260.98599243 108.68341064 C-144.74705567 51.79592506 -144.74705567 51.79592506 -94.66796875 35.34375 C-91.7279095 34.26666759 -88.98969464 33.09257512 -86.16015625 31.76953125 C-78.35078016 28.16581916 -70.2976332 25.20854477 -62.25 22.1875 C-61.43185822 21.87908173 -60.61371643 21.57066345 -59.77078247 21.25289917 C-47.44328992 16.60683054 -35.07121225 12.12847831 -22.59521484 7.89550781 C-19.80956957 6.93428986 -17.0391677 5.93606207 -14.26953125 4.9296875 C-12.8774646 4.42779907 -12.8774646 4.42779907 -11.45727539 3.91577148 C-9.70259225 3.28171834 -7.95029433 2.64100918 -6.20092773 1.99243164 C-5.42821533 1.71520264 -4.65550293 1.43797363 -3.859375 1.15234375 C-2.84568848 0.7809729 -2.84568848 0.7809729 -1.81152344 0.40209961 C-0.91481934 0.2030603 -0.91481934 0.2030603 0 0 Z " fill="#90C4FE" transform="translate(968,602)"/>
<path d="M0 0 C0 0.99 0 1.98 0 3 C-1.36328125 4.76953125 -1.36328125 4.76953125 -3.3125 6.8125 C-8.91920694 12.92174131 -13.95315918 19.42791401 -19 26 C-19.49580566 26.64420898 -19.99161133 27.28841797 -20.50244141 27.95214844 C-32.51709175 43.61334377 -43.07092631 59.94337234 -53 77 C-53.37898438 77.64372559 -53.75796875 78.28745117 -54.1484375 78.95068359 C-63.8378565 95.54745627 -71.18481265 114.41388279 -76 133 C-80.12104727 149.43476124 -83.36191592 165.41762997 -83.26074219 182.4206543 C-83.24999285 184.56392572 -83.26072229 186.70636264 -83.2734375 188.84960938 C-83.2841127 198.4227861 -82.51485569 207.51361256 -79.95703125 216.77734375 C-76.52172723 226.26253472 -72.49130778 235.1834286 -66.609375 243.421875 C-61.54930895 250.27124943 -56.21024696 256.9076733 -49.484375 262.19042969 C-40.02296368 269.38043911 -30.16487421 276.07566231 -19.07397461 280.46484375 C-8.04726219 284.63928838 3.03111105 287.52384331 14.8046875 288.64453125 C32.47274945 290.01308483 49.92878504 289.61710775 67.328125 286.1875 C69.21915161 285.79358976 71.10978797 285.39780072 73 285 C73.89138672 284.82339844 74.78277344 284.64679688 75.70117188 284.46484375 C91.46159886 281.33823443 106.67704703 276.58238629 121.95379639 271.65753174 C124.03962575 270.98726657 126.12715982 270.32259596 128.21533203 269.65966797 C148.74835701 263.1404895 169.13596934 256.25520241 189.44775391 249.07568359 C197.64435752 246.18257951 205.83272916 243.35299956 214.16064453 240.85449219 C216.88889226 240.03343741 219.59957146 239.17125863 222.30859375 238.2890625 C232.515931 234.97268419 242.74778531 231.89054637 253.11914062 229.12719727 C257.77681626 227.88539871 262.40187282 226.59158564 267.00463867 225.16015625 C286.1605386 219.23699811 306.20612134 215.10577986 326 212 C327.09441406 211.79632812 328.18882812 211.59265625 329.31640625 211.3828125 C345.25840862 208.63484043 361.63472319 209.76938394 377.6875 210.875 C378.83234863 210.95331055 379.97719727 211.03162109 381.15673828 211.11230469 C387.64688496 211.6053707 393.99082383 212.42126836 400.3996582 213.55419922 C403.34323783 214.05884445 406.27317113 214.38998719 409.25 214.625 C410.16265625 214.69976563 411.0753125 214.77453125 412.015625 214.8515625 C412.67046875 214.90054688 413.3253125 214.94953125 414 215 C414.41087117 228.10222522 413.75134495 241.01617196 412.625 254.0625 C412.53017838 255.1855101 412.53017838 255.1855101 412.43344116 256.33120728 C411.74390041 264.40412466 410.86445812 272.38192208 409.44189453 280.36499023 C408.79409063 284.22783414 408.46390876 288.10039336 408.125 292 C407.39745838 299.54162686 406.15732899 306.86638053 404.59106445 314.27587891 C403.51176003 319.39001637 402.57252542 324.49964774 401.75024414 329.66113281 C397.71355151 354.6872763 391.51909477 379.57453864 383.73046875 403.68603516 C382.85684252 406.45349151 382.07496716 409.24042621 381.29956055 412.03662109 C375.90024528 431.32640046 368.62180355 450.21396534 361.34451294 468.8644104 C360.82535618 470.19918522 360.31120691 471.53591908 359.80221558 472.87460327 C359.09340438 474.73233529 358.36169427 476.58128189 357.62890625 478.4296875 C357.0112439 480.01112549 357.0112439 480.01112549 356.38110352 481.62451172 C355.92533936 482.40842285 355.4695752 483.19233398 355 484 C354.36626465 484.29753174 353.7325293 484.59506348 353.07958984 484.90161133 C351 485 351 485 347.09765625 484.14453125 C346.31132813 483.93594482 345.525 483.7273584 344.71484375 483.51245117 C311.04524416 474.62707359 275.85051123 475.19797584 241.31591797 475.9206543 C225.77501427 476.29252837 210.25315535 477.03288371 194.73071289 477.85748291 C190.10755727 478.09876741 185.48342741 478.31966727 180.859375 478.54296875 C177.34368548 478.7148519 173.82807066 478.88820345 170.3125 479.0625 C169.09870163 479.12253204 169.09870163 479.12253204 167.86038208 479.18377686 C165.56953958 479.29829391 163.27889379 479.4161371 160.98828125 479.53515625 C159.70477783 479.600979 158.42127441 479.66680176 157.09887695 479.73461914 C153.98172339 479.91576797 150.88107901 480.19469256 147.77319336 480.49462891 C141.73416161 481.05625675 135.70088162 481.33532588 129.640625 481.55078125 C128.47517151 481.59262039 127.30971802 481.63445953 126.10894775 481.67756653 C112.65714764 482.12483501 99.2082241 482.19820998 85.75 482.1875 C84.45171265 482.18722809 83.15342529 482.18695618 81.8157959 482.18667603 C52.85352147 482.15894968 23.75423666 481.83775833 -4.93652344 477.46386719 C-8.38390067 476.94187032 -11.83623175 476.46112318 -15.2890625 475.9765625 C-43.57283673 471.86126445 -70.68816924 464.73773705 -96.83178711 453.00048828 C-111.22069091 446.36095132 -123.85195407 437.67999081 -135.9453125 427.52734375 C-145.76904454 418.8939525 -153.71096136 408.82156004 -160.82324219 397.86767578 C-170.74669251 382.1178013 -178.68064718 365.13482032 -183.88745117 347.24389648 C-187.5304137 333.82833342 -188.51671387 320.40681326 -188.375 306.5625 C-188.36851944 305.35184372 -188.36851944 305.35184372 -188.36190796 304.11672974 C-188.28707412 292.17032607 -187.73580225 280.66859052 -185 269 C-184.75854248 267.87875732 -184.75854248 267.87875732 -184.51220703 266.73486328 C-178.15814592 237.28400366 -166.99409983 208.47675476 -152.96826172 181.85107422 C-151.97020129 179.94303231 -151.00136779 178.02199985 -150.03515625 176.09765625 C-140.92952688 158.17977956 -130.02119019 141.09794165 -118 125 C-117.28972656 124.02804687 -116.57945313 123.05609375 -115.84765625 122.0546875 C-107.344768 110.52274141 -98.18664311 99.49036834 -88.88989258 88.59326172 C-85.97201372 85.16971707 -83.13007924 81.69382084 -80.3125 78.1875 C-77.11831705 74.25882578 -73.78945732 70.62910728 -70.1171875 67.14453125 C-67.57545965 64.56997665 -65.23196076 61.85172674 -62.86035156 59.12084961 C-51.37075681 46.02241003 -39.21550711 32.88722226 -25.8984375 21.62109375 C-23.67099967 19.7190635 -21.52977029 17.7339228 -19.375 15.75 C-13.19035731 10.15483107 -6.60112067 5.08876017 0 0 Z " fill="#057AFE" transform="translate(1145,610)"/>
<path d="M0 0 C4.15090014 1.2963379 8.0872511 2.86876787 12.0612793 4.61376953 C38.52394454 16.1794928 66.95634654 24.18184692 95.578125 28.09765625 C98.13462593 28.42549705 100.69194731 28.74699555 103.25 29.0625 C104.61615133 29.23395747 105.98228063 29.40559056 107.34838867 29.57739258 C133.77294539 32.87994642 159.73784434 34.21029057 186.375 34.1875 C187.42248854 34.18709969 187.42248854 34.18709969 188.49113846 34.18669128 C210.71510048 34.17603534 232.84552724 33.88981805 255 32 C255.75794861 31.93683594 256.51589722 31.87367188 257.29681396 31.80859375 C290.00307727 29.07140128 323.01418771 25.41046858 355.14941406 18.60107422 C358.00146459 17.99969118 360.85700736 17.41676377 363.71336365 16.83622742 C378.13346776 13.8983799 392.47616283 10.8990601 406.59155273 6.68994141 C407.40438721 6.45194824 408.21722168 6.21395508 409.0546875 5.96875 C410.09858643 5.65067383 410.09858643 5.65067383 411.16357422 5.32617188 C412.07260498 5.1647168 412.07260498 5.1647168 413 5 C413.99 5.33 414.98 5.66 416 6 C414.89527344 6.57105469 413.79054688 7.14210938 412.65234375 7.73046875 C376.13608453 26.71589481 340.79033992 48.03711139 306 70 C304.93458984 70.67144043 303.86917969 71.34288086 302.77148438 72.03466797 C290.23541813 79.94773078 277.84742837 87.98430318 265.83642578 96.67675781 C264.09644138 97.93050887 262.34612804 99.16765962 260.58984375 100.3984375 C250.65189436 107.38084132 241.0269209 114.77049946 231.39404297 122.16552734 C229.34181336 123.7380802 227.28439972 125.3032419 225.22265625 126.86328125 C217.58809628 132.65435786 210.25320789 138.74289932 203 145 C202.26007813 145.63808594 201.52015625 146.27617188 200.7578125 146.93359375 C196.26290032 150.84182061 191.84333774 154.83288423 187.42578125 158.828125 C185.37085486 160.66796248 183.28827574 162.46323495 181.1875 164.25 C173.17926634 171.2327891 165.58018283 178.90424009 158.71484375 187.01171875 C156.66778991 189.38518208 154.5180851 191.65039958 152.375 193.9375 C145.73854452 201.22953239 139.81643935 209.04548742 134 217 C133.53529297 217.63454102 133.07058594 218.26908203 132.59179688 218.92285156 C124.53104232 230.07613419 118.49076093 242.09058791 113.43359375 254.875 C109.90035443 264.66260026 107.74930725 274.62965345 107 285 C106.77910711 290.45931117 106.70173594 295.91162313 106.6875 301.375 C106.68382416 302.05255341 106.68014832 302.73010681 106.67636108 303.42819214 C106.64253829 315.37017048 107.84379162 327.02223407 110.91015625 338.5859375 C114.84240121 350.9041529 120.21595937 362.46765073 127.37890625 373.234375 C138.49238596 389.40094377 151.90457293 404.44543099 167 417 C174.90749505 423.36854943 183.10670243 429.35601411 191.30664062 435.33935547 C203.86796555 444.51936451 216.25467517 453.71387007 226 466 C231.92016411 474.37719108 236.59076942 483.32182241 240 493 C242.18402254 500.46557706 242.22531796 508.14962997 242.3125 515.875 C242.31653236 523.80128474 241.6042582 531.00909027 239.65625 538.7109375 C239.4396875 539.46632813 239.223125 540.22171875 239 541 C238.55269531 540.61328125 238.10539063 540.2265625 237.64453125 539.828125 C237.03996094 539.30734375 236.43539062 538.7865625 235.8125 538.25 C235.17828125 537.7034375 234.5440625 537.156875 233.890625 536.59375 C232.31779514 535.26789342 230.69559234 534.00087924 229.0625 532.75 C228.0415625 531.88375 228.0415625 531.88375 227 531 C227 530.34 227 529.68 227 529 C226.45472656 528.79246094 225.90945313 528.58492187 225.34765625 528.37109375 C223 527 223 527 220.37109375 524.34765625 C219.3880418 523.25725858 218.41045556 522.16191607 217.4375 521.0625 C213.45841748 516.65132213 209.41773367 512.35930502 205.1875 508.1875 C200.90858276 503.94515471 196.89255326 499.59526571 193 495 C192.09838844 493.94989174 191.19597349 492.90047298 190.29296875 491.8515625 C187.69783003 488.83577384 185.11221431 485.81197376 182.52880859 482.78613281 C181.10372046 481.12117836 179.67196522 479.46223918 178.23828125 477.8046875 C171.85861272 470.39289425 165.88684462 462.71674045 159.98828125 454.91796875 C157.72351896 451.92955461 155.39330281 449.01207897 153 446.125 C148.57954621 440.66499034 144.70913555 434.82726776 140.77514648 429.01342773 C137.94964593 424.83882537 135.09410101 420.71659554 132.0625 416.6875 C122.63250866 403.88109227 114.35765803 390.02368748 106.34082031 376.29443359 C105.34431814 374.58920282 104.34288797 372.88684991 103.33886719 371.18603516 C73.16872679 319.96380579 50.24572338 265.63131059 32.60162354 208.92333984 C31.73169445 206.14224971 30.83970423 203.3683153 29.94921875 200.59375 C23.4217569 180.02777432 18.50802008 159.0053668 14.7265625 137.76953125 C14.21560176 134.20632907 14.21560176 134.20632907 13 132 C12.66391726 130.17411494 12.3700247 128.34037658 12.09765625 126.50390625 C11.92943359 125.38693359 11.76121094 124.26996094 11.58789062 123.11914062 C11.41451172 121.94544922 11.24113281 120.77175781 11.0625 119.5625 C9.62890201 109.91234799 9.62890201 109.91234799 7.9609375 100.30078125 C5.01389715 84.39137939 3.67766743 68.23682124 2.375 52.125 C2.31265167 51.35843079 2.25030334 50.59186157 2.18606567 49.80206299 C-0.18540257 20.39428238 -0.18540257 20.39428238 -0.0625 6.875 C-0.05798828 6.19308594 -0.05347656 5.51117187 -0.04882812 4.80859375 C-0.03754004 3.20568628 -0.01965319 1.60282673 0 0 Z " fill="#9FC6F1" transform="translate(34,809)"/>
<path d="M0 0 C0.99 0.33 1.98 0.66 3 1 C-2.445 3.475 -2.445 3.475 -8 6 C-7.67 4.68 -7.34 3.36 -7 2 C-4.68925595 1.25881795 -2.35188447 0.59793673 0 0 Z " fill="#87B5E8" transform="translate(447,814)"/>
<path d="M0 0 C0.99 0.495 0.99 0.495 2 1 C2 2.65 2 4.3 2 6 C1.34 5.01 0.68 4.02 0 3 C0 2.01 0 1.02 0 0 Z " fill="#518DD2" transform="translate(1513,1209)"/>
</svg>
